<?xml version="1.0" encoding="UTF-8"?>
<svg width="14px" height="19px" viewBox="0 0 14 19" version="1.1" xmlns="http://www.w3.org/2000/svg" xmlns:xlink="http://www.w3.org/1999/xlink">
    <!-- Generator: Sketch 42 (36781) - http://www.bohemiancoding.com/sketch -->
    <title>Path</title>
    <desc>Created with Sketch.</desc>
    <defs></defs>
    <g stroke="none" stroke-width="1" fill="none" fill-rule="evenodd">
        <g transform="translate(-530.000000, -652.000000)" fill="#000">
            <g transform="translate(509.000000, 633.000000)">
                <path
                    d="M29.3008333,19.5895937 C28.9759167,19.2315625 28.5174167,19 28,19 C27.48375,19 27.0246667,19.2321562 26.7038333,19.59375 L21.4491667,25.5270937 C21.175,25.847125 21,26.2609687 21,26.71875 C21,27.7025938 21.7834167,28.5 22.75,28.5 C23.26625,28.5 23.7259167,28.2678438 24.0461667,27.90625 L26.25,25.4231875 L26.25,36.21875 C26.25,37.2025938 27.0334167,38 28,38 C28.9665833,38 29.75,37.2025938 29.75,36.21875 L29.75,25.4231875 L31.9491667,27.9104063 C32.2740833,28.2684375 32.73375,28.5 33.25,28.5 C34.2165833,28.5 35,27.7025938 35,26.71875 C35,26.260375 34.825,25.847125 34.54675,25.53125 L29.3008333,19.5895937 Z"
                    id="Path"></path>
            </g>
        </g>
    </g>
</svg>
