<?xml version="1.0" encoding="UTF-8"?>
<svg width="21px" height="17px" viewBox="0 0 21 17" version="1.1" xmlns="http://www.w3.org/2000/svg" xmlns:xlink="http://www.w3.org/1999/xlink">
    <!-- Generator: Sketch 42 (36781) - http://www.bohemiancoding.com/sketch -->
    <title>warning</title>
    <desc>Created with Sketch.</desc>
    <defs></defs>
    <g id="Design" stroke="none" stroke-width="1" fill="none" fill-rule="evenodd">
        <g id="Desktop-–-Errors" transform="translate(-527.000000, -652.000000)" fill-rule="nonzero" fill="#FFFFFF">
            <g id="Upload-Copy" transform="translate(515.000000, 639.000000)">
                <g id="warning" transform="translate(12.000000, 13.000000)">
                    <g id="Layer_1">
                        <g id="WARNING_1_">
                            <g id="WARNING">
                                <path d="M20.363125,15.1395389 L20.36875,15.1361167 L11.30625,0.513894444 L11.300625,0.517005556 C11.1371875,0.245716667 10.84125,0.0621611111 10.5,0.0621611111 C10.17125,0.0621611111 9.8834375,0.231094444 9.7159375,0.485894444 L9.710625,0.482783333 L0.648125,15.1050056 L0.6534375,15.1081167 C0.5571875,15.2549611 0.5,15.4294944 0.5,15.6177167 C0.5,16.1332278 0.9196875,16.55105 1.4375,16.55105 C1.4403125,16.55105 1.443125,16.5501167 1.4459375,16.5501167 L1.4459375,16.55945 L19.5709375,16.55945 L19.5709375,16.5501167 C20.0846875,16.54545 20.5,16.1304278 20.5,15.6177167 C20.5,15.44225 20.4484375,15.27985 20.363125,15.1395389 Z M10.5,14.6843833 C9.8096875,14.6843833 9.25,14.1271833 9.25,13.4399389 C9.25,12.7526944 9.8096875,12.1954944 10.5,12.1954944 C11.1903125,12.1954944 11.75,12.7526944 11.75,13.4399389 C11.75,14.1271833 11.1903125,14.6843833 10.5,14.6843833 Z M11.75,10.0177167 C11.75,10.7049611 11.1903125,11.2621611 10.5,11.2621611 C9.8096875,11.2621611 9.25,10.7049611 9.25,10.0177167 L9.25,5.35105 C9.25,4.66380556 9.8096875,4.10660556 10.5,4.10660556 C11.1903125,4.10660556 11.75,4.66380556 11.75,5.35105 L11.75,10.0177167 Z" id="Shape"></path>
                            </g>
                        </g>
                    </g>
                </g>
            </g>
        </g>
    </g>
</svg>